HIERARCHY
ROOT root
{
	OFFSET 0.000000 0.000000 0.000000
	CHANNELS 6 Xposition Yposition Zposition Zrotation Yrotation Xrotation
	JOINT lhip
	{
		OFFSET 0.058581 -0.082280 -0.017664
		CHANNELS 3 Zrotation Yrotation Xrotation
		JOINT lknee
		{
			OFFSET 0.043451 -0.386469 0.008037
			CHANNELS 3 Zrotation Yrotation Xrotation
			JOINT lankle
			{
				OFFSET -0.014790 -0.426874 -0.037428
				CHANNELS 3 Zrotation Yrotation Xrotation
				JOINT ltoe
				{
					OFFSET 0.041054 -0.060286 0.122042
					CHANNELS 3 Zrotation Yrotation Xrotation
					End Site
					{
						OFFSET 0.000000 0.000000 0.000000
					}
				}
			}
		}
	}
	JOINT rhip
	{
		OFFSET -0.060310 -0.090513 -0.013543
		CHANNELS 3 Zrotation Yrotation Xrotation
		JOINT rknee
		{
			OFFSET -0.043257 -0.383688 -0.004843
			CHANNELS 3 Zrotation Yrotation Xrotation
			JOINT rankle
			{
				OFFSET 0.019056 -0.420046 -0.034562
				CHANNELS 3 Zrotation Yrotation Xrotation
				JOINT rtoe
				{
					OFFSET -0.034840 -0.062106 0.130323
					CHANNELS 3 Zrotation Yrotation Xrotation
					End Site
					{
						OFFSET 0.000000 0.000000 0.000000
					}
				}
			}
		}
	}
	JOINT lowerback
	{
		OFFSET 0.004439 0.124404 -0.038385
		CHANNELS 3 Zrotation Yrotation Xrotation
		JOINT upperback
		{
			OFFSET 0.004488 0.137956 0.026820
			CHANNELS 3 Zrotation Yrotation Xrotation
			JOINT chest
			{
				OFFSET -0.002265 0.056032 0.002855
				CHANNELS 3 Zrotation Yrotation Xrotation
				JOINT lowerneck
				{
					OFFSET -0.013390 0.211636 -0.033468
					CHANNELS 3 Zrotation Yrotation Xrotation
					JOINT upperneck
					{
						OFFSET 0.010113 0.088937 0.050410
						CHANNELS 3 Zrotation Yrotation Xrotation
						End Site
						{
							OFFSET 0.000000 0.000000 0.000000
						}
					}
				}
				JOINT lclavicle
				{
					OFFSET 0.071702 0.114000 -0.018898
					CHANNELS 3 Zrotation Yrotation Xrotation
					JOINT lshoulder
					{
						OFFSET 0.122921 0.045205 -0.019046
						CHANNELS 3 Zrotation Yrotation Xrotation
						JOINT lelbow
						{
							OFFSET 0.255332 -0.015649 -0.022946
							CHANNELS 3 Zrotation Yrotation Xrotation
							JOINT lwrist
							{
								OFFSET 0.265709 0.012698 -0.007375
								CHANNELS 3 Zrotation Yrotation Xrotation
								End Site
								{
									OFFSET 0.000000 0.000000 0.000000
								}
							}
						}
					}
				}
				JOINT rclavicle
				{
					OFFSET -0.082954 0.112472 -0.023707
					CHANNELS 3 Zrotation Yrotation Xrotation
					JOINT rshoulder
					{
						OFFSET -0.113228 0.046853 -0.008472
						CHANNELS 3 Zrotation Yrotation Xrotation
						JOINT relbow
						{
							OFFSET -0.260127 -0.014369 -0.031269
							CHANNELS 3 Zrotation Yrotation Xrotation
							JOINT rwrist
							{
								OFFSET -0.269108 0.006794 -0.006027
								CHANNELS 3 Zrotation Yrotation Xrotation
								End Site
								{
									OFFSET 0.000000 0.000000 0.000000
								}
							}
						}
					}
				}
			}
		}
	}
}
MOTION
Frames: 17
Frame Time: 0.033333
-0.313700 -0.207286 0.980966 170.138674 2.595475 92.654366 10.805139 6.248150 -9.341270 -4.665626 -1.469740 11.077661 1.796890 7.977426 -10.244347 0.000000 -0.000000 0.000000 -6.735767 -1.883974 -14.481563 0.943709 4.402984 20.971569 3.939678 -4.147152 -14.750333 0.000000 -0.000000 0.000000 -4.316700 3.559681 24.809695 -0.330939 -3.551625 -0.489306 0.798184 -0.003264 2.594848 -8.366929 14.396420 6.365478 -2.319836 6.968289 9.904970 -17.402563 -20.523942 -0.187080 -50.120900 -25.223129 14.927266 3.777924 -28.979903 20.352886 36.921859 -14.748243 10.085379 22.331459 18.443908 3.365903 51.006734 5.421046 23.211515 -2.135315 58.593529 17.747947 -28.094406 19.194580 -15.707417 
-0.313316 -0.206499 0.981066 170.335707 2.637682 92.640794 10.811923 6.317966 -9.269962 -4.590710 -1.657701 10.990651 1.729439 7.907118 -10.172105 0.000000 -0.000000 0.000000 -6.644420 -1.918311 -14.362930 0.903337 4.365810 20.958392 3.871654 -4.262583 -14.817205 0.000000 -0.000000 0.000000 -4.205768 3.427127 24.825785 -0.300282 -3.746041 -0.624598 0.689789 -0.076424 2.695803 -8.508608 14.659920 6.700399 -2.354993 6.970807 9.818313 -17.484001 -20.439206 -0.137300 -49.898027 -25.034865 14.656118 3.552685 -29.099257 20.728117 37.831937 -14.771912 9.849444 22.436060 17.955821 3.315615 51.259012 4.945672 23.253563 -1.175673 61.233076 19.373899 -31.068118 19.258325 -16.955168 
-0.313026 -0.206017 0.981280 170.357400 2.708207 92.608379 10.862429 6.419987 -9.160419 -4.522484 -1.748246 10.919972 1.651103 7.842099 -10.170812 0.000000 -0.000000 0.000000 -6.606873 -1.854237 -14.259241 0.936794 4.199922 20.910686 3.849487 -4.193771 -14.855270 0.000000 -0.000000 0.000000 -4.153091 3.395334 24.930364 -0.268153 -3.751213 -0.728278 0.684854 -0.135179 2.799087 -8.519566 14.888315 6.729205 -2.525238 6.817158 9.772670 -17.421526 -20.294663 -0.194147 -49.960174 -24.987051 14.521154 3.407854 -29.183704 21.166568 38.511245 -14.778458 9.601665 22.539892 17.636870 3.353972 51.708992 4.930257 23.333098 -0.950073 63.005826 20.166496 -33.574089 19.314964 -17.709068 
-0.312540 -0.205723 0.981360 170.395061 2.796065 92.633080 10.980124 6.375847 -9.207520 -4.513542 -1.770596 11.006258 1.545091 7.836689 -10.179294 0.000000 -0.000000 0.000000 -6.490765 -1.911582 -14.219163 0.922036 4.106279 20.848406 3.781488 -4.101430 -14.847937 0.000000 -0.000000 0.000000 -4.125265 3.432401 24.924105 -0.191217 -3.799736 -0.701502 0.686715 -0.131046 2.823261 -8.390758 15.095148 6.739183 -2.693476 6.521339 9.699157 -17.405185 -20.221972 -0.196798 -49.901017 -24.888497 14.456945 3.303661 -29.439984 21.537719 38.784108 -14.717479 9.186767 22.612705 17.628512 3.358500 52.308779 5.389932 23.382517 -1.166328 63.003964 20.597125 -35.048325 19.344197 -17.791191 
-0.312097 -0.205771 0.981342 170.179603 2.879813 92.659828 11.140848 6.393853 -9.196358 -4.562681 -1.633917 11.056858 1.546858 7.910679 -10.221753 0.000000 -0.000000 0.000000 -6.355216 -1.871826 -14.374072 0.883420 4.141083 20.969934 3.770347 -3.966768 -14.869392 0.000000 -0.000000 0.000000 -4.179521 3.428833 24.970335 -0.212156 -3.645098 -0.772739 0.698429 0.009841 2.784288 -8.260374 15.196156 6.651498 -2.709900 6.338762 9.751302 -17.267295 -20.209102 -0.276828 -49.999843 -24.757258 14.494168 3.215864 -29.563537 21.972154 38.933938 -14.588317 8.876429 22.545430 17.945947 3.281927 53.259794 6.281259 23.257354 -2.036558 60.874710 20.226522 -34.943907 19.205017 -16.526384 
-0.311834 -0.206070 0.981393 169.875885 2.928951 92.666505 11.213802 6.480358 -9.217591 -4.569610 -1.545180 11.209223 1.564151 8.029488 -10.342568 0.000000 -0.000000 0.000000 -6.273404 -1.905877 -14.581337 0.926976 4.314826 21.120444 3.767804 -3.783676 -14.780342 0.000000 -0.000000 0.000000 -4.270027 3.448599 25.059157 -0.268801 -3.478886 -0.816176 0.723569 0.148663 2.597481 -8.233576 15.078191 6.503775 -2.523997 6.315160 9.951939 -17.025278 -20.219495 -0.493276 -50.312363 -24.454537 14.763432 3.377071 -29.764549 22.065425 37.739929 -14.063343 8.887644 22.375883 18.512238 2.961150 54.258789 7.355917 23.116216 -3.587482 57.166096 19.130920 -30.051890 19.086779 -13.202117 
-0.311577 -0.206187 0.981513 169.563498 2.862314 92.616043 11.204015 6.588256 -9.053243 -4.626868 -1.382461 11.150856 1.634621 8.072370 -10.474762 0.000000 -0.000000 0.000000 -6.308008 -1.930029 -14.684064 0.891825 4.437811 21.234486 3.843263 -3.513743 -14.686470 0.000000 -0.000000 0.000000 -4.545156 3.486445 25.062985 -0.295603 -3.311745 -0.710950 0.799734 0.290796 2.322552 -8.161093 14.812348 6.470523 -2.358883 6.453657 10.303615 -16.807090 -20.239520 -0.871852 -50.531044 -24.111825 15.310288 3.404516 -29.843328 21.763293 35.534338 -13.550271 9.529947 22.048145 19.144514 2.328622 55.292318 8.396166 23.189383 -4.961055 53.201985 16.532226 -22.056827 17.537313 -10.086487 
-0.311499 -0.206027 0.981474 169.431999 2.844824 92.606357 11.208064 6.661630 -8.976823 -4.650254 -1.290969 11.117457 1.649372 8.054131 -10.530040 0.000000 -0.000000 0.000000 -6.347368 -1.917126 -14.696483 0.896432 4.447399 21.227748 3.936756 -3.408801 -14.638320 0.000000 -0.000000 0.000000 -4.639953 3.613937 25.039946 -0.262904 -3.195410 -0.764143 0.854342 0.361569 2.246057 -7.893362 14.779468 6.460473 -2.365639 6.180192 10.633388 -16.674224 -20.363239 -0.843672 -50.759633 -24.438713 15.635336 3.249564 -29.138194 21.809775 35.863381 -13.895221 9.664575 22.190643 19.537565 2.481413 55.550478 9.259530 23.225432 -5.210648 50.360429 15.202711 -22.133014 17.433633 -9.127804 
-0.311530 -0.205440 0.981306 169.529222 2.881294 92.635486 11.260308 6.573656 -8.959836 -4.643651 -1.170945 11.104961 1.725064 7.907496 -10.517341 0.000000 -0.000000 0.000000 -6.367213 -1.975871 -14.577108 0.951326 4.414417 21.140376 4.004063 -3.448171 -14.656047 0.000000 -0.000000 0.000000 -4.650617 3.940313 24.868829 -0.058372 -3.120518 -0.441252 1.007619 0.452072 2.134533 -7.963915 14.472895 6.198479 -2.322898 5.788571 10.589239 -16.601223 -20.730446 -0.541000 -51.252310 -25.032696 15.580941 3.433537 -28.466781 21.978324 36.458768 -14.365456 9.542581 22.480338 19.790025 3.248038 54.711337 8.359613 23.148380 -6.331919 52.182199 15.364861 -24.825001 19.546320 -9.203718 
-0.311773 -0.205219 0.981130 169.769393 2.841932 92.706620 11.216348 6.531424 -9.133094 -4.699885 -1.143073 11.217341 1.775406 7.763919 -10.454523 0.000000 -0.000000 0.000000 -6.475574 -1.926994 -14.590090 0.963310 4.213135 21.211470 4.020865 -3.552173 -14.699350 0.000000 -0.000000 0.000000 -4.558083 3.965262 24.757131 -0.055004 -3.151709 -0.273688 0.980475 0.364574 2.234699 -8.020204 14.445336 6.212319 -2.364639 5.927014 10.246598 -16.491014 -20.765351 -0.357375 -51.403407 -25.233075 15.364107 3.594277 -28.647221 22.013531 36.243584 -14.355653 9.565445 22.129140 19.458026 3.415839 54.732883 7.352029 23.491795 -6.228689 55.722413 15.659021 -25.900479 19.665883 -11.639561 
-0.311776 -0.204268 0.981286 170.162594 2.810114 92.640360 11.161456 6.511261 -9.025219 -4.686430 -1.446802 11.094091 1.690346 7.604381 -10.457537 0.000000 -0.000000 0.000000 -6.531448 -1.961369 -14.286604 0.904465 3.982027 21.119321 3.988441 -3.637073 -14.697368 0.000000 -0.000000 0.000000 -4.361227 3.710451 24.710937 -0.101730 -3.491324 -0.175680 0.785732 0.107429 2.394527 -8.006959 14.749215 6.803062 -2.541129 6.305769 9.790017 -16.651877 -20.492269 -0.235191 -51.070693 -25.090076 14.981765 3.638905 -28.962552 22.123553 36.855022 -14.297007 9.444215 21.873104 18.901757 3.187849 55.230706 6.983509 24.019084 -4.922422 58.681156 17.253409 -27.792752 19.573139 -13.994832 
-0.311648 -0.203708 0.981553 170.359842 2.780366 92.645291 11.072523 6.531489 -8.940136 -4.624563 -1.668297 10.909569 1.586129 7.557354 -10.370449 0.000000 -0.000000 0.000000 -6.548807 -1.884852 -14.159028 0.824994 3.806779 21.066543 4.000883 -3.705382 -14.722832 0.000000 -0.000000 0.000000 -4.256205 3.403187 24.784222 -0.188110 -3.760714 -0.388795 0.588319 0.021076 2.636541 -7.964777 15.144735 7.278466 -2.703571 6.535454 9.665689 -16.648332 -20.228698 -0.284916 -50.759169 -24.846958 14.633562 3.430552 -29.256505 22.471002 37.991775 -14.367121 9.216499 21.709718 18.500956 2.841956 55.965112 6.703331 24.394725 -4.166806 61.247015 18.503848 -30.613130 19.377479 -15.559360 
-0.311692 -0.203248 0.981751 170.514841 2.814381 92.676301 11.063269 6.586370 -8.894009 -4.583789 -1.784630 10.745167 1.531955 7.490310 -10.311774 0.000000 -0.000000 0.000000 -6.515237 -1.839195 -14.091862 0.770956 3.655292 21.023726 4.019676 -3.753497 -14.725357 0.000000 -0.000000 0.000000 -4.228122 3.303202 24.820197 -0.105872 -3.899616 -0.509997 0.579894 -0.024526 2.743288 -7.985624 15.297926 7.647990 -2.818040 6.464532 9.606573 -16.678844 -20.163418 -0.308965 -50.703657 -24.708451 14.538218 3.294674 -29.416377 22.585031 38.687030 -14.434311 9.025147 21.771709 18.120071 2.726530 56.211790 6.494430 24.444531 -3.917630 63.403406 19.057024 -32.634410 19.118962 -16.513078 
-0.311824 -0.203134 0.981936 170.496998 2.880064 92.749841 11.078228 6.615510 -8.945404 -4.547112 -1.852549 10.715118 1.506296 7.541203 -10.268732 0.000000 -0.000000 0.000000 -6.426995 -1.861111 -14.184349 0.748757 3.674346 21.037038 3.975355 -3.762972 -14.792188 0.000000 -0.000000 0.000000 -4.167379 3.339569 24.889764 -0.090748 -3.852931 -0.676939 0.625990 -0.022427 2.830756 -7.992741 15.279681 7.631232 -2.868563 6.445991 9.651332 -16.634038 -20.144358 -0.440142 -50.804251 -24.591113 14.577019 3.214537 -29.580491 22.814928 39.025574 -14.192049 8.752533 21.663367 17.991042 2.591479 56.426360 6.343953 24.356131 -3.992126 64.100999 19.046660 -33.844714 18.570421 -17.216992 
-0.312001 -0.203135 0.982063 170.419624 2.953041 92.785470 11.120339 6.572570 -9.060756 -4.514454 -1.863332 10.857044 1.509599 7.668142 -10.316488 0.000000 -0.000000 0.000000 -6.326797 -1.994854 -14.250570 0.739104 3.820048 21.009296 3.946930 -3.692779 -14.765587 0.000000 -0.000000 0.000000 -4.008999 3.425182 25.044539 -0.167731 -3.779144 -0.743640 0.623955 0.008947 2.752981 -8.069585 15.084415 7.367433 -2.748052 6.366592 9.634255 -16.644489 -20.222944 -0.440370 -50.788149 -24.454634 14.515697 3.133300 -29.830139 23.026116 39.300428 -14.074473 8.680648 21.458241 18.212722 2.542280 56.677957 6.291228 23.988902 -4.209629 62.746616 18.859176 -33.845369 18.209128 -16.732893 
-0.312204 -0.203667 0.982052 170.173098 2.911570 92.896549 11.108738 6.573476 -9.239822 -4.597096 -1.710285 10.977182 1.530711 7.809867 -10.340615 0.000000 -0.000000 0.000000 -6.373312 -2.001105 -14.559184 0.753111 3.899774 21.108101 3.978040 -3.605877 -14.726932 0.000000 -0.000000 0.000000 -4.159853 3.477130 25.136195 -0.278346 -3.483382 -0.848829 0.696181 0.112497 2.654282 -8.044616 14.818700 7.015710 -2.495649 6.283194 9.839033 -16.530943 -20.192072 -0.667190 -51.092019 -24.484234 14.854285 3.248706 -29.808988 22.959989 38.368197 -13.920458 8.934040 21.384337 18.447478 2.393893 56.865817 6.465918 23.612060 -5.279746 59.508409 17.367776 -30.688731 17.958460 -15.324015 
-0.312351 -0.203094 0.982093 170.211183 2.922688 92.869356 11.146570 6.552060 -9.192909 -4.664160 -1.652840 11.027470 1.625523 7.741646 -10.387885 0.000000 -0.000000 0.000000 -6.344772 -2.289896 -14.404781 0.727633 3.966446 20.963657 4.068358 -3.439419 -14.668877 0.000000 -0.000000 0.000000 -4.195037 3.666913 25.066351 -0.161054 -3.522097 -0.555493 0.811582 0.210703 2.360747 -8.321652 14.417542 7.046804 -2.200553 6.502804 9.841659 -16.745388 -20.365456 -0.783495 -51.333418 -24.301201 15.338297 3.686591 -29.913054 22.139417 36.491165 -13.704827 9.785362 21.365813 18.630204 2.152594 56.797336 6.348767 23.002860 -6.544258 56.377033 14.624424 -24.035634 16.926757 -12.903888 
